<svg xmlns="http://www.w3.org/2000/svg" xmlns:xlink="http://www.w3.org/1999/xlink"><symbol class="bi bi-basket3-fill" viewBox="0 0 16 16" id="basket3-fill"><path d="M5.757 1.071a.5.5 0 0 1 .172.686L3.383 6h9.234L10.07 1.757a.5.5 0 1 1 .858-.514L13.783 6H15.5a.5.5 0 0 1 .5.5v1a.5.5 0 0 1-.5.5H.5a.5.5 0 0 1-.5-.5v-1A.5.5 0 0 1 .5 6h1.717L5.07 1.243a.5.5 0 0 1 .686-.172zM2.468 15.426.943 9h14.114l-1.525 6.426a.75.75 0 0 1-.729.574H3.197a.75.75 0 0 1-.73-.574z"/></symbol><symbol class="bi bi-code-slash" viewBox="0 0 16 16" id="code-slash"><path d="M10.478 1.647a.5.5 0 1 0-.956-.294l-4 13a.5.5 0 0 0 .956.294l4-13zM4.854 4.146a.5.5 0 0 1 0 .708L1.707 8l3.147 3.146a.5.5 0 0 1-.708.708l-3.5-3.5a.5.5 0 0 1 0-.708l3.5-3.5a.5.5 0 0 1 .708 0zm6.292 0a.5.5 0 0 0 0 .708L14.293 8l-3.147 3.146a.5.5 0 0 0 .708.708l3.5-3.5a.5.5 0 0 0 0-.708l-3.5-3.5a.5.5 0 0 0-.708 0z"/></symbol><symbol class="bi bi-dribbble" viewBox="0 0 16 16" id="dribbble"><path fill-rule="evenodd" d="M8 0C3.584 0 0 3.584 0 8s3.584 8 8 8c4.408 0 8-3.584 8-8s-3.592-8-8-8zm5.284 3.688a6.802 6.802 0 0 1 1.545 4.251c-.226-.043-2.482-.503-4.755-.217-.052-.112-.096-.234-.148-.355-.139-.33-.295-.668-.451-.99 2.516-1.023 3.662-2.498 3.81-2.69zM8 1.18c1.735 0 3.323.65 4.53 1.718-.122.174-1.155 1.553-3.584 2.464-1.12-2.056-2.36-3.74-2.551-4A6.95 6.95 0 0 1 8 1.18zm-2.907.642A43.123 43.123 0 0 1 7.627 5.77c-3.193.85-6.013.833-6.317.833a6.865 6.865 0 0 1 3.783-4.78zM1.163 8.01V7.8c.295.01 3.61.053 7.02-.971.199.381.381.772.555 1.162l-.27.078c-3.522 1.137-5.396 4.243-5.553 4.504a6.817 6.817 0 0 1-1.752-4.564zM8 14.837a6.785 6.785 0 0 1-4.19-1.44c.12-.252 1.509-2.924 5.361-4.269.018-.009.026-.009.044-.017a28.246 28.246 0 0 1 1.457 5.18A6.722 6.722 0 0 1 8 14.837zm3.81-1.171c-.07-.417-.435-2.412-1.328-4.868 2.143-.338 4.017.217 4.251.295a6.774 6.774 0 0 1-2.924 4.573z"/></symbol><symbol class="bi bi-envelope-paper" viewBox="0 0 16 16" id="envelope-paper"><path d="M4 0a2 2 0 0 0-2 2v1.133l-.941.502A2 2 0 0 0 0 5.4V14a2 2 0 0 0 2 2h12a2 2 0 0 0 2-2V5.4a2 2 0 0 0-1.059-1.765L14 3.133V2a2 2 0 0 0-2-2H4Zm10 4.267.47.25A1 1 0 0 1 15 5.4v.817l-1 .6v-2.55Zm-1 3.15-3.75 2.25L8 8.917l-1.25.75L3 7.417V2a1 1 0 0 1 1-1h8a1 1 0 0 1 1 1v5.417Zm-11-.6-1-.6V5.4a1 1 0 0 1 .53-.882L2 4.267v2.55Zm13 .566v5.734l-4.778-2.867L15 7.383Zm-.035 6.88A1 1 0 0 1 14 15H2a1 1 0 0 1-.965-.738L8 10.083l6.965 4.18ZM1 13.116V7.383l4.778 2.867L1 13.117Z"/></symbol><symbol class="bi bi-file-earmark-play" viewBox="0 0 16 16" id="file-earmark-play"><path d="M6 6.883v4.234a.5.5 0 0 0 .757.429l3.528-2.117a.5.5 0 0 0 0-.858L6.757 6.454a.5.5 0 0 0-.757.43z"/><path d="M14 14V4.5L9.5 0H4a2 2 0 0 0-2 2v12a2 2 0 0 0 2 2h8a2 2 0 0 0 2-2zM9.5 3A1.5 1.5 0 0 0 11 4.5h2V14a1 1 0 0 1-1 1H4a1 1 0 0 1-1-1V2a1 1 0 0 1 1-1h5.5v2z"/></symbol><symbol class="bi bi-github" viewBox="0 0 16 16" id="github"><path d="M8 0C3.58 0 0 3.58 0 8c0 3.54 2.29 6.53 5.47 7.59.4.07.55-.17.55-.38 0-.19-.01-.82-.01-1.49-2.01.37-2.53-.49-2.69-.94-.09-.23-.48-.94-.82-1.13-.28-.15-.68-.52-.01-.53.63-.01 1.08.58 1.23.82.72 1.21 1.87.87 2.33.66.07-.52.28-.87.51-1.07-1.78-.2-3.64-.89-3.64-3.95 0-.87.31-1.59.82-2.15-.08-.2-.36-1.02.08-2.12 0 0 .67-.21 2.2.82.64-.18 1.32-.27 2-.27.68 0 1.36.09 2 .27 1.53-1.04 2.2-.82 2.2-.82.44 1.1.16 1.92.08 2.12.51.56.82 1.27.82 2.15 0 3.07-1.87 3.75-3.65 3.95.29.25.54.73.54 1.48 0 1.07-.01 1.93-.01 2.2 0 .21.15.46.55.38A8.012 8.012 0 0 0 16 8c0-4.42-3.58-8-8-8z"/></symbol><symbol class="bi bi-hourglass-split" viewBox="0 0 16 16" id="hourglass-split"><path d="M2.5 15a.5.5 0 1 1 0-1h1v-1a4.5 4.5 0 0 1 2.557-4.06c.29-.139.443-.377.443-.59v-.7c0-.213-.154-.451-.443-.59A4.5 4.5 0 0 1 3.5 3V2h-1a.5.5 0 0 1 0-1h11a.5.5 0 0 1 0 1h-1v1a4.5 4.5 0 0 1-2.557 4.06c-.29.139-.443.377-.443.59v.7c0 .213.154.451.443.59A4.5 4.5 0 0 1 12.5 13v1h1a.5.5 0 0 1 0 1h-11zm2-13v1c0 .537.12 1.045.337 1.5h6.326c.216-.455.337-.963.337-1.5V2h-7zm3 6.35c0 .701-.478 1.236-1.011 1.492A3.5 3.5 0 0 0 4.5 13s.866-1.299 3-1.48V8.35zm1 0v3.17c2.134.181 3 1.48 3 1.48a3.5 3.5 0 0 0-1.989-3.158C8.978 9.586 8.5 9.052 8.5 8.351z"/></symbol><symbol class="bi bi-images" viewBox="0 0 16 16" id="images"><path d="M4.502 9a1.5 1.5 0 1 0 0-3 1.5 1.5 0 0 0 0 3z"/><path d="M14.002 13a2 2 0 0 1-2 2h-10a2 2 0 0 1-2-2V5A2 2 0 0 1 2 3a2 2 0 0 1 2-2h10a2 2 0 0 1 2 2v8a2 2 0 0 1-1.998 2zM14 2H4a1 1 0 0 0-1 1h9.002a2 2 0 0 1 2 2v7A1 1 0 0 0 15 11V3a1 1 0 0 0-1-1zM2.002 4a1 1 0 0 0-1 1v8l2.646-2.354a.5.5 0 0 1 .63-.062l2.66 1.773 3.71-3.71a.5.5 0 0 1 .577-.094l1.777 1.947V5a1 1 0 0 0-1-1h-10z"/></symbol><symbol class="bi bi-instagram" viewBox="0 0 16 16" id="instagram"><path d="M8 0C5.829 0 5.556.01 4.703.048 3.85.088 3.269.222 2.76.42a3.917 3.917 0 0 0-1.417.923A3.927 3.927 0 0 0 .42 2.76C.222 3.268.087 3.85.048 4.7.01 5.555 0 5.827 0 8.001c0 2.172.01 2.444.048 3.297.04.852.174 1.433.372 1.942.205.526.478.972.923 1.417.444.445.89.719 1.416.923.51.198 1.09.333 1.942.372C5.555 15.99 5.827 16 8 16s2.444-.01 3.298-.048c.851-.04 1.434-.174 1.943-.372a3.916 3.916 0 0 0 1.416-.923c.445-.445.718-.891.923-1.417.197-.509.332-1.09.372-1.942C15.99 10.445 16 10.173 16 8s-.01-2.445-.048-3.299c-.04-.851-.175-1.433-.372-1.941a3.926 3.926 0 0 0-.923-1.417A3.911 3.911 0 0 0 13.24.42c-.51-.198-1.092-.333-1.943-.372C10.443.01 10.172 0 7.998 0h.003zm-.717 1.442h.718c2.136 0 2.389.007 3.232.046.78.035 1.204.166 1.486.275.373.145.64.319.92.599.28.28.453.546.598.92.11.281.24.705.275 1.485.039.843.047 1.096.047 3.231s-.008 2.389-.047 3.232c-.035.78-.166 1.203-.275 1.485a2.47 2.47 0 0 1-.599.919c-.28.28-.546.453-.92.598-.28.11-.704.24-1.485.276-.843.038-1.096.047-3.232.047s-2.39-.009-3.233-.047c-.78-.036-1.203-.166-1.485-.276a2.478 2.478 0 0 1-.92-.598 2.48 2.48 0 0 1-.6-.92c-.109-.281-.24-.705-.275-1.485-.038-.843-.046-1.096-.046-3.233 0-2.136.008-2.388.046-3.231.036-.78.166-1.204.276-1.486.145-.373.319-.64.599-.92.28-.28.546-.453.92-.598.282-.11.705-.24 1.485-.276.738-.034 1.024-.044 2.515-.045v.002zm4.988 1.328a.96.96 0 1 0 0 1.92.96.96 0 0 0 0-1.92zm-4.27 1.122a4.109 4.109 0 1 0 0 8.217 4.109 4.109 0 0 0 0-8.217zm0 1.441a2.667 2.667 0 1 1 0 5.334 2.667 2.667 0 0 1 0-5.334z"/></symbol><symbol class="bi bi-ticket-perforated-fill" viewBox="0 0 16 16" id="ticket-perforated-fill"><path d="M0 4.5A1.5 1.5 0 0 1 1.5 3h13A1.5 1.5 0 0 1 16 4.5V6a.5.5 0 0 1-.5.5 1.5 1.5 0 0 0 0 3 .5.5 0 0 1 .5.5v1.5a1.5 1.5 0 0 1-1.5 1.5h-13A1.5 1.5 0 0 1 0 11.5V10a.5.5 0 0 1 .5-.5 1.5 1.5 0 1 0 0-3A.5.5 0 0 1 0 6V4.5Zm4-1v1h1v-1H4Zm1 3v-1H4v1h1Zm7 0v-1h-1v1h1Zm-1-2h1v-1h-1v1Zm-6 3H4v1h1v-1Zm7 1v-1h-1v1h1Zm-7 1H4v1h1v-1Zm7 1v-1h-1v1h1Zm-8 1v1h1v-1H4Zm7 1h1v-1h-1v1Z"/></symbol><symbol class="bi bi-mastodon" id="mastodon" viewBox="0 0 16 16"><path d="M11.19 12.195c2.016-.24 3.77-1.475 3.99-2.603.348-1.778.32-4.339.32-4.339 0-3.47-2.286-4.488-2.286-4.488C12.062.238 10.083.017 8.027 0h-.05C5.92.017 3.942.238 2.79.765c0 0-2.285 1.017-2.285 4.488l-.002.662c-.004.64-.007 1.35.011 2.091.083 3.394.626 6.74 3.78 7.57 1.454.383 2.703.463 3.709.408 1.823-.1 2.847-.647 2.847-.647l-.06-1.317s-1.303.41-2.767.36c-1.45-.05-2.98-.156-3.215-1.928a3.614 3.614 0 0 1-.033-.496s1.424.346 3.228.428c1.103.05 2.137-.064 3.188-.189zm1.613-2.47H11.13v-4.08c0-.859-.364-1.295-1.091-1.295-.804 0-1.207.517-1.207 1.541v2.233H7.168V5.89c0-1.024-.403-1.541-1.207-1.541-.727 0-1.091.436-1.091 1.296v4.079H3.197V5.522c0-.859.22-1.541.66-2.046.456-.505 1.052-.764 1.793-.764.856 0 1.504.328 1.933.983L8 4.39l.417-.695c.429-.655 1.077-.983 1.934-.983.74 0 1.336.259 1.791.764.442.505.661 1.187.661 2.046v4.203z"/></symbol>
<symbol class="bi bi-linkedin" viewBox="0 0 16 16">
  <path d="M0 1.146C0 .513.526 0 1.175 0h13.65C15.474 0 16 .513 16 1.146v13.708c0 .633-.526 1.146-1.175 1.146H1.175C.526 16 0 15.487 0 14.854V1.146zm4.943 12.248V6.169H2.542v7.225h2.401m-1.2-8.212c.837 0 1.358-.554 1.358-1.248-.015-.709-.52-1.248-1.342-1.248-.822 0-1.359.54-1.359 1.248 0 .694.521 1.248 1.327 1.248h.016zm4.908 8.212V9.359c0-.216.016-.432.08-.586.173-.431.568-.878 1.232-.878.869 0 1.216.662 1.216 1.634v3.865h2.401V9.25c0-2.22-1.184-3.252-2.764-3.252-1.274 0-1.845.7-2.165 1.193v.025h-.016a5.54 5.54 0 0 1 .016-.025V6.169h-2.4c.03.678 0 7.225 0 7.225h2.4"/>
</symbol>

</svg>
