<?xml version="1.0" encoding="utf-8"?>
<!-- Generator: Adobe Illustrator 27.3.1, SVG Export Plug-In . SVG Version: 6.00 Build 0)  -->
<svg version="1.1" baseProfile="tiny" id="Layer_1" xmlns="http://www.w3.org/2000/svg" xmlns:xlink="http://www.w3.org/1999/xlink"
	 x="0px" y="0px" width="512px" height="512px" viewBox="0 0 512 512" overflow="visible" xml:space="preserve">
<circle fill="#482475" cx="256" cy="256" r="254"/>
<g>
	<path fill="#FFFFFF" d="M145.79,421.92v-6.38c7.3-1.02,13.68-3.4,19.15-7.14c5.47-3.75,9.68-10.34,12.62-19.76
		c2.94-9.42,4.41-22.95,4.41-40.58V181.76c0-7.5-0.51-13.02-1.52-16.57c-1.02-3.54-3.09-5.98-6.23-7.3
		c-3.14-1.32-7.75-2.08-13.83-2.28v-6.08c5.47,0.2,12.77,0.41,21.89,0.61c9.12,0.2,18.74,0.3,28.88,0.3c10.13,0,20.11-0.1,29.94-0.3
		c9.83-0.2,17.88-0.4,24.17-0.61v6.08c-6.08,0.2-10.69,0.96-13.83,2.28c-3.14,1.32-5.22,3.75-6.23,7.3
		c-1.02,3.55-1.52,9.07-1.52,16.57v111.26c0,8.31,0.05,17.28,0.15,26.9c0.1,9.63-0.21,19-0.91,28.12
		c-0.71,9.12-2.18,17.22-4.41,24.32c-4.46,13.98-14.29,25.74-29.49,35.26C193.82,417.15,172.74,421.92,145.79,421.92z"/>
	<path fill="#FFFFFF" d="M395.98,145.28c13.38,0,24.37,1.98,32.98,5.93c8.61,3.95,16.26,8.56,22.95,13.83
		c4.05,3.04,7.14,3.4,9.27,1.06c2.13-2.33,3.6-7.85,4.41-16.57h6.99c-0.41,8.11-0.71,17.99-0.91,29.64
		c-0.2,11.66-0.3,27.11-0.3,46.36h-6.99c-0.81-9.73-2.13-18.39-3.95-25.99c-1.82-7.6-4.56-14.34-8.21-20.22
		c-3.65-5.88-8.92-11.04-15.81-15.5c-4.26-2.84-8.77-5.06-13.53-6.69c-4.76-1.62-9.68-2.43-14.74-2.43
		c-11.55,0-21.08,3.19-28.58,9.58c-7.5,6.38-13.33,14.7-17.48,24.93c-4.16,10.24-7.04,21.38-8.66,33.44
		c-1.62,12.06-2.43,23.76-2.43,35.11c0,11.35,0.81,23.06,2.43,35.11c1.62,12.06,4.51,23.21,8.66,33.44
		c4.15,10.24,9.98,18.54,17.48,24.93c7.5,6.38,17.02,9.58,28.58,9.58c5.06,0,9.98-0.86,14.74-2.58c4.76-1.72,9.27-3.9,13.53-6.54
		c10.13-6.28,16.97-14.69,20.52-25.23c3.54-10.54,6.03-24.12,7.45-40.74h6.99c0,19.86,0.1,35.92,0.3,48.18
		c0.2,12.26,0.5,22.55,0.91,30.86h-6.99c-0.81-8.71-2.18-14.18-4.1-16.42c-1.93-2.23-5.12-1.92-9.58,0.91
		c-7.5,5.27-15.46,9.88-23.86,13.83c-8.41,3.95-19.2,5.93-32.38,5.93c-22.9,0-42.97-4.36-60.19-13.07
		c-17.23-8.71-30.6-21.28-40.13-37.7c-9.53-16.42-14.29-36.18-14.29-59.28c0-22.7,4.91-42.56,14.74-59.58
		c9.83-17.02,23.36-30.3,40.58-39.82C353.62,150.04,373.48,145.28,395.98,145.28z"/>
</g>
<g>
	<polygon fill="#BC9EE1" points="271.48,410.24 242.61,430.59 271.48,452.5 271.02,469.29 226.43,434.76 226.26,427.46 
		271.48,392.15 	"/>
	<polygon fill="#BC9EE1" points="303.13,378.07 317.39,378.07 293.91,483.46 279,483.46 	"/>
	<polygon fill="#BC9EE1" points="325.56,410.28 354.43,430.63 325.56,452.54 326.02,469.33 370.61,434.8 370.78,427.5 
		325.56,392.19 	"/>
</g>
</svg>
