<?xml version="1.0" encoding="UTF-8"?>
<svg id="Layer_1" data-name="Layer 1" xmlns="http://www.w3.org/2000/svg" baseProfile="tiny-ps" version="1.2" viewBox="0 0 512 512" xml:space="preserve">
<title>Because Julia</title>
  <circle cx="256" cy="256" r="254" fill="#482475" stroke-width="0"/>
  <g>
    <path d="M145.8,421.9v-6.4c7.3-1,13.7-3.4,19.1-7.1,5.5-3.8,9.7-10.3,12.6-19.8,2.9-9.4,4.4-23,4.4-40.6v-166.3c0-7.5-.5-13-1.5-16.6-1-3.5-3.1-6-6.2-7.3s-7.8-2.1-13.8-2.3v-6.1c5.5.2,12.8.4,21.9.6s18.7.3,28.9.3,20.1-.1,29.9-.3,17.9-.4,24.2-.6v6.1c-6.1.2-10.7,1-13.8,2.3-3.1,1.3-5.2,3.8-6.2,7.3-1,3.6-1.5,9.1-1.5,16.6v111.3c0,8.3,0,17.3.1,26.9.1,9.6-.2,19-.9,28.1-.7,9.1-2.2,17.2-4.4,24.3-4.5,14-14.3,25.7-29.5,35.3-15.2,9.5-36.3,14.3-63.2,14.3Z" fill="#fff" stroke-width="0"/>
    <path d="M396,145.3c13.4,0,24.4,2,33,5.9,8.6,3.9,16.3,8.6,23,13.8,4,3,7.1,3.4,9.3,1.1,2.1-2.3,3.6-7.9,4.4-16.6h7c-.4,8.1-.7,18-.9,29.6-.2,11.7-.3,27.1-.3,46.4h-7c-.8-9.7-2.1-18.4-4-26s-4.6-14.3-8.2-20.2-8.9-11-15.8-15.5c-4.3-2.8-8.8-5.1-13.5-6.7-4.8-1.6-9.7-2.4-14.7-2.4-11.5,0-21.1,3.2-28.6,9.6-7.5,6.4-13.3,14.7-17.5,24.9-4.2,10.2-7,21.4-8.7,33.4s-2.4,23.8-2.4,35.1.8,23.1,2.4,35.1c1.6,12.1,4.5,23.2,8.7,33.4,4.1,10.2,10,18.5,17.5,24.9,7.5,6.4,17,9.6,28.6,9.6s10-.9,14.7-2.6c4.8-1.7,9.3-3.9,13.5-6.5,10.1-6.3,17-14.7,20.5-25.2,3.5-10.5,6-24.1,7.5-40.7h7c0,19.9.1,35.9.3,48.2.2,12.3.5,22.5.9,30.9h-7c-.8-8.7-2.2-14.2-4.1-16.4-1.9-2.2-5.1-1.9-9.6.9-7.5,5.3-15.5,9.9-23.9,13.8-8.4,4-19.2,5.9-32.4,5.9-22.9,0-43-4.4-60.2-13.1-17.2-8.7-30.6-21.3-40.1-37.7s-14.3-36.2-14.3-59.3,4.9-42.6,14.7-59.6,23.4-30.3,40.6-39.8c17.2-9.5,37.1-14.3,59.6-14.3Z" fill="#fff" stroke-width="0"/>
  </g>
  <g>
    <polygon points="271.5 410.2 242.6 430.6 271.5 452.5 271 469.3 226.4 434.8 226.3 427.5 271.5 392.1 271.5 410.2" fill="#bc9ee1" stroke-width="0"/>
    <polygon points="303.1 378.1 317.4 378.1 293.9 483.5 279 483.5 303.1 378.1" fill="#bc9ee1" stroke-width="0"/>
    <polygon points="325.6 410.3 354.4 430.6 325.6 452.5 326 469.3 370.6 434.8 370.8 427.5 325.6 392.2 325.6 410.3" fill="#bc9ee1" stroke-width="0"/>
  </g>
</svg>
